<?xml version="1.0" encoding="UTF-8" standalone="no"?>
<svg
   xmlns:dc="http://purl.org/dc/elements/1.1/"
   xmlns:cc="http://creativecommons.org/ns#"
   xmlns:rdf="http://www.w3.org/1999/02/22-rdf-syntax-ns#"
   xmlns:svg="http://www.w3.org/2000/svg"
   xmlns="http://www.w3.org/2000/svg"
   xmlns:sodipodi="http://sodipodi.sourceforge.net/DTD/sodipodi-0.dtd"
   xmlns:inkscape="http://www.inkscape.org/namespaces/inkscape"
   version="1.1"
   viewBox="0 0 531 595"
   width="531.0pt"
   height="595.0pt"
   id="svg1746"
   sodipodi:docname="BESTSOVLOGOSVG.svg"
   inkscape:version="0.92.4 (5da689c313, 2019-01-14)">
  <metadata
     id="metadata1752">
    <rdf:RDF>
      <cc:Work
         rdf:about="">
        <dc:format>image/svg+xml</dc:format>
        <dc:type
           rdf:resource="http://purl.org/dc/dcmitype/StillImage" />
        <dc:title />
      </cc:Work>
    </rdf:RDF>
  </metadata>
  <defs
     id="defs1750" />
  <sodipodi:namedview
     pagecolor="#ffffff"
     bordercolor="#666666"
     borderopacity="1"
     objecttolerance="10"
     gridtolerance="10"
     guidetolerance="10"
     inkscape:pageopacity="0"
     inkscape:pageshadow="2"
     inkscape:window-width="1920"
     inkscape:window-height="1017"
     id="namedview1748"
     showgrid="false"
     inkscape:zoom="0.42069882"
     inkscape:cx="421.59065"
     inkscape:cy="692.00082"
     inkscape:window-x="-8"
     inkscape:window-y="-8"
     inkscape:window-maximized="1"
     inkscape:current-layer="svg1746" />
  <path
     d="m -571.04874,-2.5211865 h 266.31 c -6.02,3.86 -12.29,7.39 -18.62,10.71 -19.23,11.1300005 -38.07,21.7400005 -57.35,32.6500005 -24.78,14.3 -50.27,28.33 -75.07,42.91 -15.16,7.97 -29.75,17.089996 -44.85,25.169996 -5.26,3.58 -11.08,6.1 -16.47,9.49 -9.01,4.96 -17.79,10.37 -26.9,15.14 -6.88,4.19 -14.17,7.84 -20.92,12.2 l -0.13,1.74 c 0,94.33 0,188.66 0,282.99 0.05,3.57 -0.19,7.18 0.13,10.73 14.21,8.55 28.86,16.66 43.3,24.82 69.68,39.69 139.46,79.2 209.14,118.9 2.48,1.38 5.45,3.63 8.23,4.07 5.95,-2.65 11.44,-6.45 17.2,-9.53 72.41,-41.43 143.82,-81.87 216.420004,-123.56 8.2,-4.45 16.39,-9.03 24.36,-13.87 0.48,-3.46 0.15,-7.06 0.22,-10.56 -0.01,-92 0,-184 0,-276 -0.06,-3.49 0.23,-7.07 -0.19,-10.54 -36.72,-20.93 -71.840004,-41.18 -108.470004,-61.809996 -37.06,-21.22 -74.26,-42.44 -111.34,-63.65 -12.75,-7.28 -25.79,-14.2000005 -38.23,-22.0000005 H -40.048736 V 592.47881 H -571.04874 Z"
     id="path1668"
     inkscape:connector-curvature="0"
     style="fill:#ffffff" />
  <path
     d="M 266.31 0.00 L 266.77 0.00 C 279.21 7.80 292.25 14.72 305.00 22.00 C 342.08 43.21 379.28 64.43 416.34 85.65 C 452.97 106.28 488.09 126.53 524.81 147.46 C 525.23 150.93 524.94 154.51 525.00 158.00 C 525.00 250.00 524.99 342.00 525.00 434.00 C 524.93 437.50 525.26 441.10 524.78 444.56 C 516.81 449.40 508.62 453.98 500.42 458.43 C 427.82 500.12 356.41 540.56 284.00 581.99 C 278.24 585.07 272.75 588.87 266.80 591.52 C 264.02 591.08 261.05 588.83 258.57 587.45 C 188.89 547.75 119.11 508.24 49.43 468.55 C 34.99 460.39 20.34 452.28 6.13 443.73 C 5.81 440.18 6.05 436.57 6.00 433.00 C 6.00 338.67 6.00 244.34 6.00 150.01 L 6.13 148.27 C 12.88 143.91 20.17 140.26 27.05 136.07 C 36.16 131.30 44.94 125.89 53.95 120.93 C 59.34 117.54 65.16 115.02 70.42 111.44 C 85.52 103.36 100.11 94.24 115.27 86.27 C 140.07 71.69 165.56 57.66 190.34 43.36 C 209.62 32.45 228.46 21.84 247.69 10.71 C 254.02 7.39 260.29 3.86 266.31 0.00 Z"
     fill="#010101"
     id="path1670" />
  <path
     d="M 265.13 9.03 C 266.29 8.85 267.43 10.06 268.45 10.54 C 283.88 19.01 299.01 28.04 314.43 36.55 C 380.54 74.14 446.68 111.64 512.82 149.17 C 514.97 150.52 517.14 151.38 518.85 153.29 C 519.19 156.50 518.96 159.78 519.00 163.00 C 519.00 252.33 519.00 341.67 519.00 431.00 C 518.96 434.22 519.19 437.50 518.84 440.70 C 514.94 444.73 508.72 446.73 503.94 449.92 C 436.12 488.45 368.23 526.87 300.43 565.45 C 289.07 571.79 277.86 578.15 266.62 584.71 C 265.23 585.57 264.25 584.59 263.03 583.98 C 244.81 573.20 225.87 562.91 207.66 552.36 C 178.56 535.88 147.97 518.56 119.00 502.01 C 104.82 494.30 91.00 485.88 76.80 478.19 C 64.29 471.04 51.78 463.77 39.19 456.82 C 30.16 451.78 21.32 446.38 12.17 441.57 C 11.81 438.41 12.04 435.17 12.00 432.00 C 12.00 342.33 12.00 252.67 12.00 163.00 C 12.04 159.78 11.81 156.50 12.15 153.29 C 16.21 149.58 21.83 147.46 26.42 144.44 C 33.80 140.56 40.93 136.27 48.19 132.19 C 120.04 91.33 193.59 49.74 265.13 9.03 Z"
     fill="#ffffff"
     id="path1672" />
  <path
     d="M 265.19 14.20 C 267.44 14.48 269.62 16.23 271.58 17.32 C 295.53 31.12 319.62 44.49 343.56 58.35 C 358.41 66.38 372.85 75.20 387.70 83.24 C 427.24 105.93 467.26 128.39 506.82 151.05 C 509.25 152.39 511.95 153.48 514.19 155.11 C 514.56 158.37 514.33 161.72 514.37 165.00 C 514.36 253.00 514.36 341.00 514.37 429.00 C 514.33 432.27 514.56 435.62 514.18 438.88 C 506.35 443.49 498.28 447.96 490.32 452.38 C 475.66 460.71 461.09 469.24 446.32 477.38 C 434.20 484.25 422.18 491.34 409.94 498.01 C 383.24 513.42 356.40 528.35 329.70 543.76 C 316.38 551.01 303.34 558.78 290.11 566.20 C 282.33 570.34 274.80 574.93 267.12 579.24 C 265.57 580.18 264.68 579.67 263.22 578.91 C 245.06 568.25 226.65 558.25 208.44 547.66 C 144.53 511.47 80.71 475.08 16.82 438.88 C 16.44 435.62 16.67 432.27 16.63 429.00 C 16.64 341.33 16.63 253.67 16.63 166.00 C 16.66 162.67 16.49 159.32 16.71 156.00 C 17.90 154.25 20.42 153.22 22.21 152.11 C 91.37 112.93 160.40 73.58 229.54 34.41 C 241.68 27.49 253.07 20.86 265.19 14.20 Z"
     fill="#010101"
     id="path1674" />
  <path
     d="M 273.25 37.75 C 288.93 46.63 304.46 55.77 319.83 65.17 C 329.04 71.05 338.86 75.95 348.13 81.73 C 367.35 93.17 386.63 104.62 405.80 116.12 C 415.48 121.78 424.93 127.77 434.82 133.06 C 447.13 140.05 458.89 147.88 471.55 154.27 C 477.55 157.23 483.06 160.90 488.80 164.29 C 491.91 166.16 495.34 167.61 498.28 169.73 C 499.03 171.38 499.29 173.15 499.31 174.95 C 499.31 255.97 499.30 336.98 499.31 418.00 C 499.28 420.97 499.48 423.99 499.17 426.94 C 498.03 428.50 496.01 429.46 494.34 430.38 C 490.28 432.48 486.21 434.57 482.18 436.74 C 480.07 435.25 479.44 434.40 478.81 431.94 C 483.33 429.11 488.65 427.09 492.75 423.69 C 492.45 395.75 492.70 366.45 492.61 338.00 C 492.53 333.06 493.10 327.81 492.20 322.95 C 491.87 322.35 491.51 321.76 491.12 321.18 C 454.43 357.69 417.57 394.20 380.97 430.97 C 355.50 456.50 330.06 482.07 304.46 507.46 C 299.46 512.34 294.41 517.61 290.43 523.36 C 288.07 526.87 286.00 530.58 283.76 534.16 C 282.61 536.04 281.58 537.95 280.98 540.08 C 284.41 539.87 287.55 537.34 290.69 535.90 C 291.98 537.47 293.34 538.93 294.94 540.19 C 288.02 544.22 280.91 547.89 273.99 551.92 C 270.79 553.69 266.74 555.90 262.99 555.47 C 259.43 555.04 256.66 552.18 253.98 550.03 C 250.79 547.28 247.14 545.47 243.42 543.56 C 210.74 525.53 178.36 507.14 145.69 489.16 C 125.29 477.59 104.82 466.14 84.41 454.58 C 68.58 445.43 52.70 437.96 37.56 427.46 C 35.74 426.06 35.42 424.24 35.43 422.06 C 35.42 338.69 35.39 254.21 35.44 170.93 C 35.25 168.11 37.10 166.60 39.15 165.10 C 45.40 160.76 52.15 157.40 58.75 153.64 C 66.33 149.28 73.98 145.04 81.49 140.55 C 115.85 121.28 149.73 101.21 184.09 81.91 C 210.21 66.86 235.80 51.96 261.97 37.04 C 265.84 34.68 269.51 35.89 273.25 37.75 Z"
     id="path1676"
     fill="#fcfcfc" />
  <path
     d="M 269.15 55.95 C 272.39 55.53 274.56 57.28 277.23 58.76 C 343.36 97.63 409.58 136.36 475.71 175.24 C 477.77 176.41 480.31 177.51 481.83 179.34 C 482.54 181.95 481.78 183.54 480.22 185.59 C 477.50 184.88 474.86 183.99 472.34 182.71 C 451.94 170.39 431.15 158.56 410.65 146.37 C 370.35 122.71 329.89 99.10 289.65 75.37 C 282.77 71.53 276.26 67.22 269.16 63.75 C 269.00 61.13 268.90 58.57 269.15 55.95 Z"
     fill="#a1804b"
     id="path1678" />
  <path
     d="M 262.83 57.04 C 263.07 59.36 263.03 61.63 262.93 63.95 C 242.97 74.80 223.54 86.64 203.70 97.73 C 168.70 117.74 133.88 137.89 98.81 157.82 C 87.25 164.98 74.80 170.99 63.68 178.79 C 61.16 180.01 58.50 180.83 55.78 181.52 C 54.32 179.50 53.43 177.92 54.20 175.36 C 55.77 173.59 58.15 172.37 60.15 171.11 C 65.71 167.64 71.47 164.50 77.06 161.08 C 135.10 128.00 193.27 94.39 251.28 61.24 C 255.16 59.10 258.05 56.32 262.83 57.04 Z"
     fill="#d0aa6b"
     id="path1680" />
  <path
     d="M 262.93 63.95 C 262.74 87.91 262.85 111.94 262.98 135.90 C 263.26 139.29 266.50 138.04 268.68 137.56 C 269.50 136.20 269.32 134.57 269.38 133.04 C 269.24 109.95 269.40 86.84 269.16 63.75 C 276.26 67.22 282.77 71.53 289.65 75.37 C 329.89 99.10 370.35 122.71 410.65 146.37 C 431.15 158.56 451.94 170.39 472.34 182.71 C 461.48 200.95 450.08 218.89 439.00 237.00 C 397.72 303.99 356.27 371.04 315.06 438.05 C 299.60 462.61 284.81 487.60 269.20 512.07 C 269.47 507.73 269.34 503.35 269.35 499.00 C 269.36 467.00 269.35 435.00 269.36 403.00 C 269.32 399.72 269.54 396.39 269.19 393.12 C 268.24 391.59 265.54 391.28 263.94 391.77 C 263.46 396.48 263.58 401.26 263.39 406.00 C 263.36 440.67 263.39 475.33 263.33 510.00 C 263.35 513.57 263.03 516.84 263.91 520.33 C 261.35 515.02 257.76 510.23 255.01 505.00 C 198.97 409.68 143.09 314.27 87.06 218.95 C 79.34 205.52 71.20 192.33 63.68 178.79 C 74.80 170.99 87.25 164.98 98.81 157.82 C 133.88 137.89 168.70 117.74 203.70 97.73 C 223.54 86.64 242.97 74.80 262.93 63.95 Z"
     fill="#000000"
     id="path1682" />
  <path
     d="m 259,142.32 c 6.41,-0.81 12.66,0.02 19.03,0.7 5.49,0.63 10.25,3.3 15.31,5.63 8.61,4.61 16.33,10.63 21.51,19.04 -0.02,1.88 2.78633,7.62178 2.46633,9.47178 -3.89,0.63 -6.48455,4.58178 -11.89059,2.42455 -1.69881,6.23634 -9.89059,6.54515 -15.11059,8.12515 -3.33,-1.73 -6.53515,-6.24148 -10.34515,-6.69148 -3.83,-1.87 -7.71,-3.44 -11.98,-3.93 -6.42,-1.06 -12.63,1.35 -18.66,3.18 -1.76,0.31 0.70208,6.70297 -0.94792,7.41297 -0.77,1.82 -5.68208,-2.55297 -6.42208,-0.72297 -1.4,-1.48 -6.76693,-1.24426 -6.79693,-3.41426 -0.25,-6.27 -3.26976,-10.88833 -1.37857,-19.32437 -0.39,-3.36 -2.32628,-6.79137 -3.22628,-9.95137 2.45,-2.33 8.57178,-3.88 9.56178,-7.34 5.84,-3.32 12.22,-4.49 18.88,-4.61 z"
     id="path1684"
     inkscape:connector-curvature="0"
     style="fill:#b99559"
     sodipodi:nodetypes="ccccccccccccccccc" />
  <path
     d="m 240.12,146.93 c -0.99,3.46 -3.33,5.01 -5.78,7.34 0.9,3.16 2.62,5.7 3.01,9.06 0.63,6.23 1.66,12.37 1.91,18.64 0.03,2.17 1.3,3.51 2.7,4.99 0.74,-1.83 1.24,-3.76 2.01,-5.58 1.65,-0.71 3.6,-0.8 5.36,-1.11 -3.19,3.99 -6.87,6.82 -8.32,11.87 -2.71,7.56 -1.7,15.65 2.08,22.64 l -4.55,-2.49 c -0.3297,9.89722 -0.69337,10.99059 1.10663,15.87059 1.32402,4.79901 5.14803,11.04866 -1.57663,13.72941 -0.72,1.76 4.36326,1.55426 3.11326,2.98426 1.69,0.34 -2.26326,1.26574 -1.26326,2.93574 2.37663,2.74544 0.98663,5.36089 -3.43,5.35 7.47208,1.88941 2.24,2.26 3.06,3.15 -0.09,0.92 -0.22,1.84 -0.39,2.75 l -0.7,0.48 c -2.74,-1.96 -5.18,-4.08 -7.44,-6.56 -4.15,-4.55 -8.62,-8.78 -12.89,-13.21 -5.82,-5.63 -13.99267,-11.24911 -17.11267,-18.66911 -2.46,-5.95 2.92267,-13.98089 2.71267,-20.33089 0,-2.59 0.04,-5.15 0.28,-7.72 0.53,-10.53 6.78,-21 12.83,-29.36 3.89,-5.48 9.05,-8.67 14.52,-12.35 2.73,-1.86 5.71,-3.17 8.76,-4.41 z"
     id="path1686"
     inkscape:connector-curvature="0"
     style="fill:#a3804c"
     sodipodi:nodetypes="cccccccccccccccccccccccccc" />
  <path
     d="m 314.85,167.69 c 4.02,5.09 6.3,10.83 8.66,16.8 1.88,5.08 1.65,10.02 2.01,15.29 5.24,1.1 10.39,0.99 15.36,3.33 -2.88,-0.49 -5.76,-0.93 -8.65,-1.37 -4.8,-0.76 -8.6397,1.54148 -13.4697,2.55148 -5.26,1.08 -9.76971,3.19515 -14.87971,4.82515 -5.36,1.78 -12.69059,1.32337 -16.02059,6.04337 0.43,1.77 9.48871,0.0337 5.94148,3.5297 2.58,2.67 6.33545,4.10941 8.52545,7.10941 1.99,2.73 0.27396,5.16456 1.89389,7.93456 5.99178,-0.0509 5.21918,7.73633 5.21918,7.73633 -3.65,4.03 -7.95007,7.34 -11.67007,11.3 -2.68,2.96 -6.09,5.03 -7.07,9.04 -2.06,-1.58 -3.78,-3.8 -5.53,-5.72 2.33,-0.45 -0.37237,-1.76604 0.54763,-4.52604 -5.01634,-5.2897 -2.33882,-7.19792 -6.21882,-12.21792 -2.11,-4 -3.68881,-8.89604 -4.88881,-13.19604 4.58,-5.09 11.81,-10.05 13.8,-16.72 1.6,-4.43 1.8,-9.39 0.96,-14 -1.3,-6.02 -5.03,-10.32 -9.4,-14.41 3.81,0.45 6.7,1.81 10.03,3.54 5.22,-1.58 9.63,-4.41 13.85,-7.81 3.2,-2.57 6.74,-2.74 10.63,-3.37 0.32,-1.85 0.35,-3.81 0.37,-5.69 z"
     id="path1688"
     inkscape:connector-curvature="0"
     style="fill:#a2804c"
     sodipodi:nodetypes="cccccccccccccccccccccccccc" />
  <path
     d="M 267.99 177.09 C 272.26 177.58 276.14 179.15 279.97 181.02 C 284.34 185.11 288.07 189.41 289.37 195.43 C 290.21 200.04 290.01 205.00 288.41 209.43 C 286.42 216.10 279.19 221.06 274.61 226.15 C 271.02 229.56 268.39 233.24 264.38 236.12 C 257.30 228.99 250.04 222.04 243.09 214.78 C 239.31 207.79 238.30 199.70 241.01 192.14 C 242.46 187.09 246.14 184.26 249.33 180.27 C 255.36 178.44 261.57 176.03 267.99 177.09 Z"
     fill="#020103"
     id="path1690" />
  <path
     d="M 63.68 178.79 C 71.20 192.33 79.34 205.52 87.06 218.95 C 143.09 314.27 198.97 409.68 255.01 505.00 C 257.76 510.23 261.35 515.02 263.91 520.33 C 262.12 523.51 260.95 526.55 260.60 530.23 C 259.30 528.47 258.31 526.62 257.24 524.72 C 190.05 410.34 122.94 295.91 55.78 181.52 C 58.50 180.83 61.16 180.01 63.68 178.79 Z"
     fill="#b8955b"
     id="path1692" />
  <path
     d="M 472.34 182.71 C 474.86 183.99 477.50 184.88 480.22 185.59 C 451.39 231.90 422.82 278.65 394.08 325.06 C 355.92 387.23 317.29 449.10 279.49 511.49 C 275.51 517.96 271.76 525.16 266.63 530.78 C 264.76 531.22 262.25 531.33 260.60 530.23 C 260.95 526.55 262.12 523.51 263.91 520.33 C 265.86 517.69 267.58 514.93 269.20 512.07 C 284.81 487.60 299.60 462.61 315.06 438.05 C 356.27 371.04 397.72 303.99 439.00 237.00 C 450.08 218.89 461.48 200.95 472.34 182.71 Z"
     fill="#ceab6b"
     id="path1694" />
  <path
     d="M 44.35 187.34 C 56.27 207.25 68.17 227.17 79.70 247.32 C 108.63 296.48 137.15 345.79 166.00 394.99 C 183.35 424.98 201.00 454.88 218.22 484.92 C 214.52 482.25 211.44 478.98 208.26 475.74 C 156.10 423.57 103.91 371.42 51.76 319.24 C 48.82 316.18 45.80 313.24 42.43 310.65 C 42.59 271.43 42.44 232.17 42.50 192.94 C 42.44 190.59 42.87 189.13 44.35 187.34 Z"
     fill="#000000"
     id="path1696" />
  <path
     d="M 492.39 188.38 C 492.89 192.15 492.60 196.17 492.63 200.00 C 492.57 233.67 492.65 267.33 492.60 301.00 C 492.54 304.44 493.39 308.25 492.63 311.59 C 490.69 314.24 488.04 316.41 485.75 318.76 C 430.43 374.10 375.08 429.42 319.76 484.76 C 317.23 487.16 314.90 490.25 311.89 492.03 C 309.67 492.48 308.19 490.31 309.41 488.50 C 312.03 485.12 314.66 481.79 317.07 478.24 L 317.11 479.91 C 320.09 477.70 322.62 474.88 325.24 472.24 C 377.91 419.57 430.59 366.92 483.24 314.24 C 486.04 311.22 489.20 308.62 492.14 305.76 C 492.36 304.54 492.47 303.30 492.48 302.04 C 492.41 268.70 492.43 235.34 492.45 202.00 C 492.33 197.56 493.12 193.53 491.28 189.46 L 492.39 188.38 Z"
     fill="#b99259"
     id="path1698" />
  <path
     d="M 491.28 189.46 C 493.12 193.53 492.33 197.56 492.45 202.00 C 492.43 235.34 492.41 268.70 492.48 302.04 C 492.47 303.30 492.36 304.54 492.14 305.76 C 489.20 308.62 486.04 311.22 483.24 314.24 C 430.59 366.92 377.91 419.57 325.24 472.24 C 322.62 474.88 320.09 477.70 317.11 479.91 L 317.07 478.24 C 319.68 474.39 321.99 470.37 324.37 466.38 C 355.69 414.36 386.87 362.36 418.18 310.34 C 426.87 295.38 436.11 280.76 444.86 265.84 C 457.69 244.96 470.04 223.80 482.77 202.85 C 485.65 198.44 487.47 192.94 491.28 189.46 Z"
     fill="#000000"
     id="path1700" />
  <path
     d="m 332.23,201.74 c -6.96,-0.23 -12.14426,3.19663 -18.80426,5.51663 -4.52,1.62 -11.59574,-0.93663 -15.46574,1.97337 -1.38,5.11 12.43356,6.70911 14.87356,10.54911 2.41,4.02 7.68604,6.9097 5.48881,12.37545 -0.24,1.04 0.88,-3.05 -5.04237,0.94544 0.59,0.5 0.29,4.07 0.87,4.59 -1.56,1.27 -3.13,2.52 -4.71,3.78 -2.32,-1.68 -4.9,-3.06 -7.11,-4.9 -1.62,-2.77 -2.11,-6.15 -4.1,-8.88 -2.19,-3 -5,-5.7 -7.58,-8.37 -1.18,-1.29 -2.36,-2.39 -2.79,-4.16 3.33,-4.72 9.4,-7.73 14.76,-9.51 5.11,-1.63 10.25,-3.43 15.51,-4.51 4.83,-1.01 9.3,-0.16 14.1,0.6 z"
     id="path1702"
     inkscape:connector-curvature="0"
     style="fill:#bb945a"
     sodipodi:nodetypes="ccccccccccccccc" />
  <path
     d="m 203.73,200.77 c 0.21,6.35 0.5,12.49 2.96,18.44 3.12,7.42 5.62,14.93 11.44,20.56 -5.32,-4.19 -12.72,-3.76 -19.12,-3.55 -6.12,0.23 -10.47,4.12 -14.69,8.1 -3.47,3.31 -4.72,7.57 -5.71,12.12 -1.27,5.92 0.71,12.2 3.65,17.32 3.37,5.61 9,8.32 14.93,10.46 -2.26,0.66 -1.07307,6.41237 -6.85,3.13 3.66208,9.09544 3.52178,16.81515 3.38178,25.00515 0.05,2.17 -4.90178,3.30485 -5.89178,5.12485 -6.82,-1.73 -13.31,-4.38 -19.17,-8.3 -3,-2.23 -5.69,-4.9 -8.59,-7.28 -4.35,-3.59 -7.55,-8.75 -10.4,-13.58 -3.45,-5.91 -4.74,-12.07 -6.45,-18.63 -1.77,-7.06 -1.46,-14.64 0.06,-21.7 2.43,-7.08 5.04,-14.43 9.1,-20.76 3.54,-4.58 7.33,-9.39 12.05,-12.81 3.63,-2.67 7.37,-5.7 11.62,-7.23 3.74,-1.35 7.56,-2.49 11.29,-3.91 5.33,-2.06 10.73,-2.38 16.39,-2.51 z"
     id="path1704"
     inkscape:connector-curvature="0"
     style="fill:#866134"
     sodipodi:nodetypes="ccccccccccccccccccccc" />
  <path
     d="m 332.23,201.74 c 2.89,0.44 5.77,0.88 8.65,1.37 8.33,2.41 16.24,5.54 23.16,10.89 6.01,4.19 10.13,9.81 14.09,15.87 3.14,4.92 5.02,10.31 6.86,15.85 1.65,5.02 1.64,10.03 1.75,15.28 0.24,8.73 -2.63,17.63 -6.31,25.46 -3.29,5.89 -7.3,12.51 -12.99,16.33 -2.36,-0.12 -8.64118,4.72687 -10.98118,4.97687 -1.97,-2.31 -2.76432,-6.89275 -5.03432,-9.09275 -2.46,-2.41 -4.81431,-5.23706 -6.46431,-8.36706 -1.81,-3.36 -0.28019,-8.16706 -2.21019,-11.47706 3.95,-4.76 7.42,-9.32 7.73,-15.79 0.24,-5.73 -0.32,-13.51 -4.82,-17.67 -2.41,-2.53 -4.99,-5.08 -7.96,-6.95 -3.81,-2.3 -8.41,-2.08 -12.7,-2.13 -3.71,-0.06 -7.27,0.46 -10.85,1.4 -0.58,-0.52 -1.16,-1.04 -1.75,-1.54 0.3,-1.02 0.64,-2.01 0.88,-3.05 -2.53,-3.89 -5.6,-7.41 -8.01,-11.43 -2.44,-3.84 -8.69,-7.33 -7.31,-12.44 3.87,-2.91 9.37,-3.82 13.89,-5.44 6.66,-2.32 13.42,-2.28 20.38,-2.05 z"
     id="path1706"
     inkscape:connector-curvature="0"
     style="fill:#d0aa6b"
     sodipodi:nodetypes="ccccccccccccccccccccccc" />
  <path
     d="m 238.54,212.29 c 1.62,0.65 3.1,1.54 4.55,2.49 6.95,7.26 14.21,14.21 21.29,21.34 15.11874,3.22604 10.22166,8.69313 17.00166,15.51313 1.75,1.92 7.25834,8.59687 9.31834,10.17687 2.75,2.01 5.24,4.12 7.5,6.68 -2.03,0.71 -6.30604,5.89208 -8.38604,6.41208 -0.51,-2.42 2.78604,-2.00208 2.20604,-4.41208 -1.1,0.5 -3.45,-6.23 -4.38,-5.44 0.77,3.05 6.24693,7.24574 6.27693,10.49574 3.53663,6.53604 -0.21515,9.02515 -0.31515,13.35515 -0.08,3.66 0.28089,5.25911 0.24089,8.88911 0.3,5.12 5.1797,9.48 6.1497,14.29 -1.12,5.7 -8.40237,10.71 -7.90237,16.73 -0.75,-0.85 -1.47,-1.73 -2.21,-2.59 -2.28,6.7 6.55237,12.14 5.31237,18.79 -0.25,4.45 -1.99485,9.2897 0.19515,13.3497 0.99,1.63 -2.60604,2.55941 -2.87604,4.31941 5.26574,-1.81119 6.36971,-1.95119 6.85852,5.08089 -7.77,5.44 -16.94,8.94 -26.32,10.27 -11.4,1.74 -22.5,-0.43 -33.1,-4.63 0.39,-1.11 -3.99722,-3.18544 1.03,-3.37 -3.43,-4.34 -7.11722,-2.2397 -8.15722,-3.7097 1.19,-0.88 5.5039,-3.39332 6.5939,-4.39332 1.07,-1.55 -5.10479,-4.46272 1.47332,-4.67698 1.6,-1.85 -1.67752,-7.97722 -0.10752,-9.86722 2.15,-2.6 8.66752,-1.53278 10.57752,-4.24278 1.64,-0.77 -9.30623,-2.77148 -7.63623,-2.40148 4.22,1.38 22.07138,2.27301 26.43138,1.77301 2.07,-0.2 3.34485,0.78847 5.00485,-0.36153 3.87,-2.78 8.51,-5.81 11.11,-9.86 2.1,-3.41 3.69,-7.2 3.5,-11.28 -0.27,-6.08 -1.67,-12.3 -5.83,-16.95 -5.81,-6.34 -26.61,-10.16 -32.4,-16.54 -8.59,-9.17 -4.54,-18.78 -13.08,-27.98 0.17,-0.91 -2.78178,-1.99485 -2.69178,-2.91485 -0.82,-0.89 0.63178,-2.14515 0.72178,-3.46515 0.95,-1.88 2.34,-3.55 3.43,-5.35 -1,-1.67 -3.98,-1.02 -5.67,-1.36 1.25,-1.43 3.1,-2.8 3.82,-4.56 0.7,-4.94 -0.67,-10.23 -1.89,-14.99 -1.8,-4.88 1.4,-9.44 2.36,-14.61 z"
     id="path1708"
     inkscape:connector-curvature="0"
     style="fill:#ba955a"
     sodipodi:nodetypes="cccccccccccccccccccccccccccccccccccccccccc" />
  <path
     d="M 274.61 226.15 C 275.81 230.45 279.91 233.14 282.02 237.14 C 285.90 242.16 288.58 247.85 290.76 253.77 C 289.84 256.53 287.50 255.64 285.17 256.09 C 278.39 249.27 271.02 243.11 264.38 236.12 C 268.39 233.24 271.02 229.56 274.61 226.15 Z"
     fill="#876134"
     id="path1710" />
  <path
     d="M 199.01 236.22 C 205.41 236.01 212.81 235.58 218.13 239.77 C 222.40 244.20 226.87 248.43 231.02 252.98 C 233.28 255.46 235.72 257.58 238.46 259.54 C 233.65 266.82 225.99 271.70 220.89 278.86 C 213.93 284.46 205.78 285.00 197.19 284.22 C 191.26 282.08 185.63 279.37 182.26 273.76 C 179.32 268.64 177.34 262.36 178.61 256.44 C 179.60 251.89 180.85 247.63 184.32 244.32 C 188.54 240.34 192.89 236.45 199.01 236.22 Z"
     fill="#020103"
     id="path1712" />
  <path
     d="M 314.15 237.69 C 317.73 236.75 321.29 236.23 325.00 236.29 C 329.29 236.34 333.89 236.12 337.70 238.42 C 340.67 240.29 343.25 242.84 345.66 245.37 C 350.16 249.53 350.72 257.31 350.48 263.04 C 350.17 269.51 346.70 274.07 342.75 278.83 C 335.44 283.43 327.58 285.66 318.93 284.08 C 316.98 283.70 315.05 283.25 313.12 282.77 C 308.02 278.15 303.31 273.11 298.20 268.49 C 295.94 265.93 293.45 263.82 290.70 261.81 C 291.68 257.80 295.09 255.73 297.77 252.77 C 301.49 248.81 305.79 245.50 309.44 241.47 C 311.02 240.21 312.59 238.96 314.15 237.69 Z"
     id="path1714"
     fill="#020103" />
  <path
     d="m 238.46,259.54 -2.69178,-2.91485 c 8.54,9.2 21.51178,19.81485 30.10178,28.98485 -2.8,1.06 -4.73,2.32 -6.79,4.48 -2.97,3.06 -5.99,5.98 -9.19,8.8 1.49,-1.88 2.95,-3.79 4.31,-5.76 -0.96,-0.42 -1.95,-0.76 -2.93,-1.14 -0.02,-1.49 -3.26663,0.17148 -3.19663,-1.31852 -2.41,0.41 -1.48337,-1.88148 -3.93337,-1.91148 -2.87,-0.26 -7.01059,2.15208 -9.58059,0.89208 -2.29,-1.21 -5.11515,-3.43575 -7.43515,-4.55575 -0.74,-1.51 1.57574,-2.83633 -0.39426,-7.51633 -1.97,0.2 -3.93,0.75 -5.84,1.28 5.1,-7.16 12.76,-12.04 17.57,-19.32 z"
     id="path1716"
     inkscape:connector-curvature="0"
     style="fill:#866135"
     sodipodi:nodetypes="cccccccccccccc" />
  <path
     d="m 290.73,263.21 c 0.58,2.41 0.78,4.86 1.29,7.28 2.08,-0.52 4.15,-1.29 6.18,-2 5.11,4.62 9.82,9.66 14.92,14.28 3.52,6.58 11.21313,12.23706 13.68313,19.29706 1.96,5.61 2.12895,11.29264 -1.68313,17.75294 0.68,7.84 -0.79,15.79 -4.52,22.74 -4.64,10.23 -11.62,19.21 -21.23,25.2 -3.01,-2.62 -6.32,-2.48 -10.01,-3.19 0.27,-1.76 1.66,-3.95 0.67,-5.58 -2.19,-4.06 -0.13,-9.53 0.12,-13.98 1.24,-6.65 -2.55,-12.09 -0.27,-18.79 0.74,0.86 2.0903,-5.19326 2.8403,-4.34326 -0.5,-6.02 1.1097,-4.09674 2.2297,-9.79674 -0.97,-4.81 -6.48,-9.17 -6.78,-14.29 0.04,-3.63 1.57,-7.12 1.65,-10.78 0.1,-4.33 0.07,-8.71 0,-13.04 -0.03,-3.25 -1.41,-5.87 -2.18,-8.92 0.93,-0.79 1.99,-1.34 3.09,-1.84 z"
     id="path1718"
     inkscape:connector-curvature="0"
     style="fill:#d0aa6b"
     sodipodi:nodetypes="ccccccccccccccccccc" />
  <path
     d="M 226.73 277.58 C 227.43 279.11 227.96 280.75 228.70 282.26 C 231.02 283.38 233.53 284.03 235.82 285.24 C 238.39 286.50 241.27 288.50 244.14 288.76 C 246.59 288.79 249.13 287.93 251.54 287.52 C 251.47 289.01 251.25 290.50 251.27 291.99 C 252.25 292.37 253.24 292.71 254.20 293.13 C 252.84 295.10 251.38 297.01 249.89 298.89 C 246.89 301.90 243.86 304.88 241.02 308.04 C 229.18 314.21 216.88 319.92 203.19 319.29 C 197.97 319.29 192.84 319.08 187.83 317.48 C 188.82 315.66 189.99 314.21 189.94 312.04 C 190.08 303.85 189.59 295.50 190.34 287.35 C 192.02 285.59 194.93 284.88 197.19 284.22 C 205.78 285.00 213.93 284.46 220.89 278.86 C 222.80 278.33 224.76 277.78 226.73 277.58 Z"
     id="path1720"
     fill="#a2804a" />
  <path
     d="m 342.75,278.83 c 1.93,3.31 3.52,6.78 5.33,10.14 1.65,3.13 4.45,4.62 6.91,7.03 2.27,2.2 3.51,5 5.48,7.31 2.34,-0.25 4.61,-0.64 6.97,-0.52 -5.34,6.1 -12.23,9.42 -19.62,12.38 -2.11,-0.48 -8.88118,2.16981 -10.46118,0.57981 -1.56,-2.08 -1.76432,-4.61431 -3.48432,-6.58431 -1.8,-1.87 -5.22137,-5.29844 -7.07137,-7.09844 -2.59,-3.92 -5.00137,-6.93725 -6.08137,-11.47725 -0.27,-2.77 0.27824,-5.83981 -1.79176,-6.50981 8.65,1.58 16.51,-0.65 23.82,-5.25 z"
     id="path1722"
     inkscape:connector-curvature="0"
     style="fill:#ba955b"
     sodipodi:nodetypes="cccccccccccc" />
  <path
     d="M 313.12 282.77 C 315.05 283.25 316.98 283.70 318.93 284.08 C 321.00 284.75 325.80 284.70 326.07 287.47 C 327.15 292.01 328.67 296.81 331.26 300.73 C 333.11 302.53 335.64 303.73 337.44 305.60 C 339.16 307.57 339.81 310.55 341.37 312.63 C 342.95 314.22 345.71 314.69 347.82 315.17 C 340.58 318.86 333.05 319.27 325.12 319.82 C 324.52 313.99 324.88 308.73 322.92 303.12 C 320.45 296.06 316.64 289.35 313.12 282.77 Z"
     id="path1724"
     fill="#a4804d" />
  <path
     d="M 265.87 285.61 C 271.66 291.99 278.13 297.72 283.94 304.06 C 288.10 308.71 289.50 314.93 289.77 321.01 C 289.96 325.09 288.37 328.88 286.27 332.29 C 283.67 336.34 279.03 339.37 275.16 342.15 C 269.74 344.05 264.26 345.09 258.60 343.46 C 249.64 341.25 242.84 334.85 239.62 326.25 C 239.21 320.09 239.88 314.08 241.02 308.04 C 243.86 304.88 246.89 301.90 249.89 298.89 C 253.09 296.07 256.11 293.15 259.08 290.09 C 261.14 287.93 263.07 286.67 265.87 285.61 Z"
     fill="#020103"
     id="path1726" />
  <path
     d="m 241.02,308.04 c -1.14,6.04 -1.81,12.05 -1.4,18.21 -2,-2.15 -0.22852,9.09138 -1.46852,6.45138 -1.5,4.04 1.46852,-6.45138 -8.21148,-1.73138 -0.19763,9.10059 1.02237,6.30059 -0.19763,9.10059 -1.06,2.76 -6.33237,4.40941 -7.62237,7.12941 -0.95,2.21 8.58504,5.24059 8.87504,7.76059 -0.01,1.71 2.52119,1.10302 -5.74385,4.48243 -0.2,1.07 -2.99119,1.02698 -3.31119,2.07698 -4.39,-3.52 -8.1,-7.64 -10.55,-12.75 -2.05,-4.35 -4.48,-8.65 -5.97,-13.22 -1.76,-5.49 -1.19,-10.53 -2.23,-16.26 16.52633,-1.26089 25.99,-5.08 37.83,-11.25 z"
     id="path1728"
     inkscape:connector-curvature="0"
     style="fill:#866135"
     sodipodi:nodetypes="ccccccccccccc" />
  <path
     d="M 42.43 310.65 C 45.80 313.24 48.82 316.18 51.76 319.24 C 103.91 371.42 156.10 423.57 208.26 475.74 C 211.44 478.98 214.52 482.25 218.22 484.92 C 219.87 486.91 221.74 488.86 223.02 491.11 C 223.26 493.05 221.96 494.17 220.09 494.08 C 217.50 492.45 215.42 489.89 213.23 487.77 C 158.57 433.09 103.90 378.43 49.24 323.76 C 46.95 321.38 44.31 319.21 42.33 316.56 C 41.64 314.82 42.30 312.49 42.43 310.65 Z"
     fill="#a38048"
     id="path1730" />
  <path
     d="M 235.00 319.15 C 236.24 321.79 237.62 324.10 239.62 326.25 C 242.84 334.85 249.64 341.25 258.60 343.46 C 264.26 345.09 269.74 344.05 275.16 342.15 C 273.50 343.30 271.91 344.36 269.84 344.56 C 265.48 345.06 261.18 345.27 256.96 343.89 C 255.29 343.52 253.00 342.37 251.36 343.14 C 249.45 345.85 248.29 349.51 246.14 352.11 C 244.57 354.00 242.49 355.40 240.89 357.25 C 240.93 359.04 242.22 361.48 241.15 363.03 C 240.06 364.03 238.74 364.81 237.55 365.69 C 238.59 367.16 240.34 368.38 240.98 370.03 C 240.68 371.16 240.34 372.29 239.95 373.40 C 233.54 370.70 226.25 367.16 221.94 361.52 C 222.26 360.47 222.53 359.41 222.73 358.34 C 221.96 356.87 220.27 355.41 220.28 353.70 C 219.99 351.18 221.17 349.41 222.12 347.20 C 223.41 344.48 223.64 341.57 224.70 338.81 C 225.92 336.01 228.24 333.52 229.94 330.97 C 232.42 327.38 233.50 323.19 235.00 319.15 Z"
     id="path1732"
     fill="#a3804b" />
  <path
     d="M 491.12 321.18 C 491.51 321.76 491.87 322.35 492.20 322.95 C 492.69 327.57 492.40 332.35 492.44 337.00 C 492.47 363.67 492.39 390.39 492.48 417.04 C 492.33 418.64 492.65 420.02 491.23 421.12 C 487.69 424.02 483.09 425.76 479.18 428.17 C 424.00 458.62 368.82 489.13 313.64 519.60 C 303.77 525.05 293.98 530.56 284.01 535.85 L 283.76 534.16 C 286.00 530.58 288.07 526.87 290.43 523.36 C 294.41 517.61 299.46 512.34 304.46 507.46 C 330.06 482.07 355.50 456.50 380.97 430.97 C 417.57 394.20 454.43 357.69 491.12 321.18 Z"
     fill="#000000"
     id="path1734" />
  <path
     d="M 42.98 323.08 C 49.44 328.90 55.26 335.44 61.63 341.36 C 92.98 372.67 124.25 404.12 155.56 435.44 C 178.07 457.94 200.64 480.35 223.04 502.96 C 231.84 511.24 239.11 520.83 245.46 531.08 C 244.99 531.69 244.54 532.32 244.11 532.96 C 212.33 515.30 181.60 498.40 150.08 480.87 C 114.80 461.16 80.42 442.34 45.31 422.75 C 44.18 422.17 43.03 422.55 41.81 422.63 C 41.62 393.20 41.78 363.46 41.69 334.00 C 41.74 330.15 41.24 326.68 42.98 323.08 Z"
     fill="#000000"
     id="path1736" />
  <path
     d="M 492.20 322.95 C 493.10 327.81 492.53 333.06 492.61 338.00 C 492.70 366.45 492.45 395.75 492.75 423.69 C 488.65 427.09 483.33 429.11 478.81 431.94 C 462.41 440.73 446.27 450.05 429.90 458.90 C 383.53 484.74 337.08 510.21 290.69 535.90 C 287.55 537.34 284.41 539.87 280.98 540.08 C 281.58 537.95 282.61 536.04 283.76 534.16 L 284.01 535.85 C 293.98 530.56 303.77 525.05 313.64 519.60 C 368.82 489.13 424.00 458.62 479.18 428.17 C 483.09 425.76 487.69 424.02 491.23 421.12 C 492.65 420.02 492.33 418.64 492.48 417.04 C 492.39 390.39 492.47 363.67 492.44 337.00 C 492.40 332.35 492.69 327.57 492.20 322.95 Z"
     fill="#b99559"
     id="path1738" />
  <path
     d="M 263.94 391.77 C 265.54 391.28 268.24 391.59 269.19 393.12 C 269.54 396.39 269.32 399.72 269.36 403.00 C 269.35 435.00 269.36 467.00 269.35 499.00 C 269.34 503.35 269.47 507.73 269.20 512.07 C 267.58 514.93 265.86 517.69 263.91 520.33 C 263.03 516.84 263.35 513.57 263.33 510.00 C 263.39 475.33 263.36 440.67 263.39 406.00 C 263.58 401.26 263.46 396.48 263.94 391.77 Z"
     fill="#fdfdfd"
     id="path1740" />
  <path
     d="M 45.31 422.75 C 80.42 442.34 114.80 461.16 150.08 480.87 C 181.60 498.40 212.33 515.30 244.11 532.96 C 244.54 532.32 244.99 531.69 245.46 531.08 C 246.69 533.13 247.45 535.39 247.87 537.73 C 243.53 536.93 239.83 534.24 235.88 532.17 C 196.72 510.16 157.51 488.63 118.27 466.75 C 94.94 453.68 71.57 440.79 48.14 427.89 C 45.91 426.48 42.79 425.24 41.81 422.63 C 43.03 422.55 44.18 422.17 45.31 422.75 Z"
     fill="#866134"
     id="path1742" />
  <path
     d="M 478.81 431.94 C 479.44 434.40 480.07 435.25 482.18 436.74 C 453.85 452.17 425.62 467.85 397.34 483.38 C 363.36 502.60 328.92 520.94 294.94 540.19 C 293.34 538.93 291.98 537.47 290.69 535.90 C 337.08 510.21 383.53 484.74 429.90 458.90 C 446.27 450.05 462.41 440.73 478.81 431.94 Z"
     fill="#fafafa"
     id="path1744" />
</svg>
